<svg width="25" height="33" viewBox="0 0 25 33" fill="none" xmlns="http://www.w3.org/2000/svg">
  <path fill-rule="evenodd" clip-rule="evenodd" d="M19.62 6.854v.093q.044.046.044.092 0 .044.046.093v.045q.048.046.048.093l.091.09v.047q.001.045.046.045v.093q.047.045.047.092 0 .046.047.094l.045.045v.091q.048.046.048.092l.046.047v.139l.093.091q0 .045.043.094l.047.046v.092q.046.045.047.092v.046q.045 0 .045.045v.092q.047.045.046.092.047.044.047.093.046.001.046.046.046.044.047.093.045.045.044.09h.091q0 .048.094.048l.092.09q.046.045.047.093.044.046.045.091v.094q.046.044.047.089 0 .048.046.091v.049q-.001.045.046.09v.094q.046.045.046.091.047 0 .048.045v.048q.046.044.046.09v.095l.045.046q-.002.043.048.09 0 .046.046.093v.092q.047-.001.046.046l.045.048q.047.045.047.091.046.05.046.091V11q.045.045.046.091.047.049.048.093l.043.045q.048.045.047.09l.047.049v.092q.045.045.044.091l.047.047q0 .043.047.092 0 .047.043.092v.046q.05.044.05.093l.043.046q.048.045.048.091 0 .045.045.046v.093q.045.044.046.092.046.046.046.093l.048.045q.046.046.046.093l.045.046v.092l.045.045v.092q.001.047.047.092v.094q.046 0 .047.044a.13.13 0 0 1 .045.094v.045q.048.045.092.092l.048.048v.09q0 .048.045.092v.093q.046 0 .047.045v.094l.045.047v.089l.047.05q0 .042.045.089 0 .045.047.091v.14q.046.046.047.091l.047.048q.044.044.093.09v.048q.045.045.045.092v.091l.046.047c.03.03.046.063.046.09v.096l.048.045v.045l.091.094q0 .045.046.09 0 .046.045.095.001.044.047.046v.184l.09.093q.049.045.093.09v.092q.047.046.093.095v.044q.045.045.045.094.048.046.048.091v.046q.044.047.092.048 0 .046.046.093 0 .044.047.09-.001.047.046.092v.139q.044.045.044.091l.047.048q.045-.001.093.046v.091q.045.047.045.093l.046.045v.186q.048 0 .094.044 0 .049.044.092.045 0 .046.045.001.046.046.092v.463q-.046 0-.046.043v.093l-.046.046v5.337l.046.048v.091q.001.048.046.091v1.337l.046.047v.09l.047.049v1.981l.045.046q0 .046.046.092v1.657q-.046 0-.046.045v.093a.12.12 0 0 0-.045.093v1.795q-.001.047-.047.092v.092q0 .044-.046.093l-.046.046q0 .045-.046.09-.044.046-.044.092-.047.048-.048.093h-.047q.001.046-.046.093h-.056a.5.5 0 0 0-.184.09.4.4 0 0 0-.185.046h-.322a.4.4 0 0 0-.183-.045.6.6 0 0 0-.137-.091q0-.046-.048-.093v-.369l.047-.045.092-.092q.046-.044.091-.092h.184q.046-.044.091-.092v-8.195q-.043-.044-.045-.092-.044-.046-.092-.047v-1.198q-.045-.045-.045-.091v-.048q-.047-.044-.047-.093v-1.432q-.046-.045-.09-.091v-.555q-.048-.044-.047-.09-.046-.047-.045-.093v-.37l-.046-.045q-.047-.047-.048-.093v-.275q-.046-.044-.046-.092v-.091q-.047-.001-.047-.047t-.045-.094v-.09q-.047 0-.092-.047v-.553q-.048.001-.048-.046-.046 0-.046-.048 0-.045-.048-.09 0-.044-.045-.092v-.092q-.045 0-.046-.047a.13.13 0 0 0-.045-.091q-.046-.046-.047-.094-.045 0-.045-.045v-.045q-.047-.045-.048-.091-.044-.048-.093-.093 0-.046-.045-.046 0-.048-.046-.093v-.091q-.046-.048-.047-.094v-.044l-.041-.046q0-.045-.046-.091a.13.13 0 0 0-.046-.09c0-.035-.017-.048-.047-.048v-.092q-.046-.046-.047-.094-.046-.045-.046-.09h-.045v-.094q.001-.046-.047-.091v-.094c-.03-.03-.058-.045-.093-.045a.13.13 0 0 0-.044-.09h-.094a.5.5 0 0 0-.137-.095.12.12 0 0 1-.044-.092q-.048.001-.094-.046v-.091q-.045-.045-.046-.093l-.046-.047v-.09q-.045-.001-.091-.048l-.094-.091c0-.032-.016-.06-.045-.093v-.047q0-.046-.047-.091 0-.046-.047-.09 0-.05-.046-.05v-.088q-.048 0-.047-.047l-.091-.094v-.044q-.002-.046-.045-.093v-.09q-.046-.047-.093-.092l-.046-.048q-.046-.048-.094-.092v-.183l-.09-.094q-.047-.045-.092-.092-.001-.043-.046-.091l-.047-.045q-.046-.046-.046-.093l-.045-.046v-.093q-.047-.001-.048-.045l-.09-.092q0-.045-.046-.093a.13.13 0 0 1-.046-.093l-.046-.046q-.047-.045-.048-.091-.044.001-.093-.046v-.093q-.046 0-.046-.046a.13.13 0 0 1-.046-.091l-.091-.093q0-.045-.048-.046 0-.046-.046-.092-.045-.049-.091-.092l-.047-.049-.092-.09-.043-.045q0-.043-.049-.092v-.092q-.045-.046-.09-.047 0-.043-.047-.092-.046-.046-.048-.09-.046 0-.046-.048-.046-.048-.09-.047-.047-.046-.046-.092-.001-.046-.046-.093-1.752.001-3.546.046 0 .047-.046.047 0 .045-.045.092v2.673h.184a.9.9 0 0 1 .275.045q0 .046.047.047.182.044.277.044.09 0 .183.048h.093q.276.045.598.045h.231q.043.045.091.045.045.049.092.049.093 0 .139.045h.047q.183.046.322.047a.5.5 0 0 1 .23.046q.046.044.09.044h.093q.092-.001.138.05h.093c.06.028.124.041.183.041q.094 0 .232.048l.092.091q.091.047.137.048h.093q.137 0 .274.047.048.043.094.091.043.047.138.093.09.043.183.09.047 0 .14.048.044.045.138.046.09.046.183.09.001.048.092.092l.047.048q.046.045.09.091.049.044.092.093v.045q.093.045.14.094.045.045.138.045 0 .045.091.09-.001.047.046.095.047 0 .093.046.046.043.046.09.045.049.091.094.047.045.093.046l.091.09.046.048q.044.045.094.091-.001.047.044.049.001.045.046.09.047.044.048.092.045.046.044.092l.047.047q.046.047.046.093l.044.046v.091l.049.045v.092q.043.046.044.09.047.048.047.095v.046q.045.047.045.091v.048l.093.09v.047q0 .045.047.092v.183q.046 0 .047.045.045.046.045.092v.047q.045.045.045.091v.138q0 .047.047.093v.137q.046.047.046.093l.046.046v.091q.047 0 .046.047v.09q.001.048.046.093v.047q0 .045.048.092v.137q0 .046.045.093v.047q.046.046.047.09.046.048.045.093l.046.045q.046.047.045.093.049.047.048.092v.093q0 .046.046.091v.093q-.002.046.048.094v.045q.045.045.045.092.046.047.047.094v.044l.045.046v.414q.046.047.047.093v.045l.046.047v2.21c-.03.032-.046.06-.046.092q-.047.045-.047.09v.507a.13.13 0 0 1-.045.092v.092q0 .044-.047.092l-.045.045v.184l-.048.048v.045q-.046.045-.046.092v.229q-.046.047-.048.093-.045.045-.045.092l-.046.048v.044q-.045.045-.045.092v.093q0 .045-.047.045v.093q-.045.044-.045.092v.09l-.093.094q.001.045-.046.092v.091q0 .046-.045.045-.001.047-.046.095 0 .046-.048.093v.091l-.043.048v.045c-.028.03-.061.062-.09.094v.09q-.048 0-.048.046v.092q-.046.045-.047.09 0 .046-.046.094v.048l-.045.045q.001.047-.047.092v.092l-.044.046c0 .028-.014.062-.049.093v.09l-.044.046q-.046.046-.046.091l-.048.048q0 .045-.043.092v.093l-.048.046a.13.13 0 0 1-.046.093q0 .044-.044.09-.002.046-.047.046-.047.047-.047.092 0 .047-.046.048.001.043-.046.09 0 .046-.045.048.001.045-.047.09 0 .047-.046.092l-.091.093v.046q-.046.044-.046.092-.047.047-.093.047 0 .046-.046.091 0 .048-.046.049 0 .043-.047.09v.091l-.092.094q-.045-.001-.091.046l-.094.09v.045l-.092.094q0 .048-.043.048-.002.045-.048.09-.001.044-.046.092-.044.047-.093.091l-.045.048q-.046.046-.047.093a.34.34 0 0 1-.136.045q-.048.046-.047.093l-.046.044a.5.5 0 0 0-.139.091.5.5 0 0 0-.137.094q-.045.047-.093.091-.047 0-.09.048-.046.043-.048.091-.045.045-.09.045l-.186.092a.4.4 0 0 0-.139.047.5.5 0 0 0-.136.093q-.048.044-.093.092a.12.12 0 0 1-.09.045.6.6 0 0 0-.141.093l-.184.094a.4.4 0 0 1-.137.045q0 .045-.045.09l-.048.047a.5.5 0 0 0-.136.093q-.047.047-.094.046a.4.4 0 0 1-.184.048q-.046.045-.092.045c-.065 0-.107.015-.138.046a.6.6 0 0 0-.185.092.4.4 0 0 1-.139.047.4.4 0 0 1-.136.045.5.5 0 0 0-.232.047h-.092a.4.4 0 0 1-.181.046.4.4 0 0 1-.188.047.5.5 0 0 0-.136.091q-.09.044-.185.093l-.092.045h-.276q-.048.045-.048.092h-.09a.4.4 0 0 1-.185.048.4.4 0 0 0-.139.043h-.09q-.048.046-.138.046-.184 0-.322.047h-.137q-.048.047-.138.046a.4.4 0 0 0-.185.048h-.048a.4.4 0 0 1-.18.045.8.8 0 0 0-.232.045.4.4 0 0 1-.138.047q-.046.044-.139.044h-.413q-.093.045-.184.093a.4.4 0 0 1-.14.047q-.044.047-.137.048-.138 0-.321.046h-.046q-.046.046-.14.046h-2.07a.4.4 0 0 1-.185-.046h-.044q-.046-.046-.094-.046a.8.8 0 0 0-.231-.048l-.184-.092q0-.047-.046-.048h-.044a.6.6 0 0 0-.231-.044.6.6 0 0 0-.137-.092l-.047-.045a.4.4 0 0 0-.138-.048 1 1 0 0 0-.277-.046l-.092-.047H8.34a.8.8 0 0 0-.229-.046 4 4 0 0 1-.185-.09l-.184-.093h-.139q-.138-.045-.275-.093-.047-.046-.091-.093h-.046a.7.7 0 0 0-.185-.047q-.14-.046-.275-.093a.13.13 0 0 1-.094-.047H6.59a.8.8 0 0 0-.183-.045 2 2 0 0 0-.23-.093.6.6 0 0 0-.14-.091.4.4 0 0 1-.182-.045 2 2 0 0 0-.233-.094.13.13 0 0 1-.042-.092.44.44 0 0 0-.186-.047l-.093-.09c-.03 0-.062-.018-.092-.046l-.09-.094q-.093-.044-.093-.092-.046 0-.093-.045l-.092-.093a1 1 0 0 0-.091-.092.2.2 0 0 0-.138-.048.7.7 0 0 0-.136-.091q-.047 0-.048-.045-.045-.048-.091-.091-.046-.05-.094-.048 0-.045-.045-.091-.046-.047-.047-.094l-.092-.091a.13.13 0 0 0-.091-.044l-.091-.094q-.047 0-.048-.045l-.184-.093q0-.046-.043-.047-.048-.045-.05-.091l-.092-.093-.092-.09q-.044 0-.09-.047-.001-.048-.047-.094-.045 0-.092-.045 0-.045-.046-.09 0-.047-.047-.047 0-.045-.046-.093-.045-.045-.045-.092a2 2 0 0 0-.094-.09q-.045.001-.091-.049-.046-.045-.048-.09-.046 0-.046-.047v-.093l-.045-.046v-.093q-.047-.044-.092-.092 0-.045-.047-.09-.045 0-.046-.048a.13.13 0 0 1-.045-.09l-.046-.047q0-.044-.048-.093l-.091-.09-.091-.092q-.001-.047-.047-.093v-.137q0-.045-.046-.093 0-.046-.046-.091-.047.001-.047-.046a.13.13 0 0 1-.09-.045v-.093q0-.045-.048-.091v-.046q0-.046-.045-.094 0-.045-.048-.09 0-.047-.045-.048v-.14q0-.046-.046-.091v-.093q-.048.001-.048-.046 0-.043-.045-.091v-.092q0-.048-.047-.047v-.091q-.045 0-.045-.048v-.091l-.047-.05v-.09q0-.045-.046-.09 0-.047-.045-.092l-.046-.049v-.136q0-.046-.048-.091v-.322q-.042-.001-.043-.047l-.093-.093v-.507q-.045-.047-.046-.092v-.045q-.047-.045-.047-.092v-.139q0-.045-.047-.091v-.048q0-.044-.046-.091v-2.9q.045-.045.046-.093 0-.044.047-.092v-.505q0-.046.047-.093v-.045q.046 0 .046-.048v-.415l.093-.092h.046v-.413q.001-.047.047-.093v-.276q.046-.044.047-.093.045 0 .045-.045.045-.048.092-.092v-.093q0-.044.045-.043v-.231q.047-.047.048-.095v-.046l.091-.093q.001-.045.046-.09v-.046q.045 0 .045-.045.047-.05.048-.091.045-.049.045-.094v-.139q.047-.044.047-.092v-.138q.045 0 .047-.047.045-.046.045-.092.047-.045.092-.093l.047-.045v-.092q.045-.046.046-.091l.091-.093.091-.086q.047-.045.048-.09.045-.049.046-.095l.045-.043q.047-.05.047-.096.046-.044.046-.092l.092-.09q.045-.001.045-.046.047-.001.094-.047l.091-.093.094-.09.045-.047q.047-.047.047-.095.047-.044.092-.09.047-.045.093-.094.046 0 .046-.045.046-.002.09-.045l.093-.095q.045-.043.092-.091l.046-.043a.14.14 0 0 0 .044-.09q.048-.046.091-.093.047-.047.093-.048.002-.046.047-.09a.4.4 0 0 0 .183-.047l.091-.092a.6.6 0 0 1 .14-.092h.277l.09-.093c.06-.03.126-.062.184-.094a.5.5 0 0 0 .186-.091q.091.001.183-.044a.5.5 0 0 1 .23-.046q.048 0 .093-.047h.048q.09-.045.181-.045a.34.34 0 0 1 .14-.05.4.4 0 0 1 .182-.044h.138a.4.4 0 0 0 .184-.045h.047a.4.4 0 0 1 .183-.048q.185-.044.414-.044a.5.5 0 0 1 .14-.092q.091 0 .184-.046.045-.049.092-.048.092-.001.138-.046l.047-.047h.184q.415 0 .874-.045h.231v-.045h.458v-1.752q-.046-.044-.047-.09v-.691h-.367q-.002-.044-.045-.092v-.183h-.14V4.23q-.46 0-.875.045h-.137a.4.4 0 0 1-.183.046h-.182a.6.6 0 0 0-.23-.046q-.092 0-.14-.045a1.5 1.5 0 0 0-.23-.093q-.047-.045-.047-.09-.046-.044-.091-.094-.047 0-.046-.046-.048-.044-.047-.093V3.77c-.03-.03-.045-.063-.045-.09v-.232q0-.046.047-.047v-.09q-.001-.044.046-.093l.046-.047.09-.09.047-.047a.4.4 0 0 1 .185-.048h.045v-.412l.047-.047.093-.091q.046-.046.046-.093c.027-.032.06-.061.09-.093q0-.046.046-.048l.092-.09q.092 0 .138-.045l.047-.046h.828v-.046q.045-.047.093-.047l.092-.091q.092 0 .137-.045v-.138h6.767V.548Q15.616.5 15.706.5V.456h1.197v.32l.046.048v.093q.046.044.046.09l.047.047V1.1q.044.045.044.093v.093c0 .028-.014.046-.044.046v.091q-.047.045-.047.09-.046.046-.046.094v.185h.184a2 2 0 0 1 .091.09q.047.047.094.046.046.046.046.094.046.001.093.046.046.045.046.092l.048.043q.045.048.045.094.046.046.047.094v.046q.046.047.045.092v.137q0 .045-.045.091v.045h.045q0 .047.045.093v.091q.047.046.048.094l.045.046v.185q.046.047.047.092h.047q.044.045.044.091.048.002.093.046.046.045.046.094l.048.045q.045.046.045.091l.047.047v.09l.046.047v.094q0 .045.047.09v.093l.045.045v.092l.045.046v.092l.048.047q0 .046.045.093v.091l.092.093q.047 0 .048.045.042.047.043.092v.138l.048.046q.044.047.093.091-.001.044.046.093 0 .045.045.092v.045q.046.046.046.093v.046q.046.045.046.093.044 0 .09.046v.093q.047.044.047.092v.091q.046.001.047.047.046.043.046.092v.045q0 .046.046.095l.046.044q-.001.046.049.093 0 .043.042.092v.046q.048.045.049.092.045.044.045.092l.046.044c-.008.03.01.046.041.046M2.263 20.203v-.23l-.046.046v.093q-.045.046-.045.091v.276q0-.047.045-.092v-.093q.047 0 .046-.045z" fill="#fff"/>
</svg>
