<?xml version="1.0" encoding="UTF-8"?>
<svg xmlns="http://www.w3.org/2000/svg" xmlns:xlink="http://www.w3.org/1999/xlink" width="36px" height="32px" viewBox="0 0 36 32" version="1.1">
<g id="surface1">
<path style=" stroke:none;fill-rule:evenodd;fill:rgb(100%,100%,100%);fill-opacity:1;" d="M 35.859375 12.703125 L 35.859375 13.785156 C 35.859375 13.867188 35.832031 13.929688 35.78125 13.980469 C 35.703125 14.136719 35.578125 14.277344 35.394531 14.40625 C 35.242188 14.535156 35.058594 14.625 34.851562 14.675781 C 34.617188 14.753906 34.398438 14.78125 34.195312 14.753906 C 33.9375 14.703125 33.675781 14.589844 33.421875 14.40625 C 31.742188 13.296875 30.203125 12.46875 28.8125 11.925781 C 27.417969 11.410156 26.113281 11.089844 24.898438 10.957031 C 23.789062 10.933594 22.785156 10.972656 21.878906 11.074219 C 21.027344 11.203125 20.242188 11.320312 19.515625 11.425781 C 19 11.527344 18.496094 11.578125 18.007812 11.578125 C 17.515625 11.605469 17.027344 11.617188 16.535156 11.617188 L 16.300781 11.617188 C 16.019531 11.488281 15.734375 11.371094 15.453125 11.269531 C 15.242188 11.164062 15.011719 11.089844 14.753906 11.035156 C 14.496094 10.957031 14.304688 10.894531 14.175781 10.84375 C 14.042969 11.046875 13.925781 11.242188 13.824219 11.421875 C 13.722656 11.578125 13.566406 11.707031 13.359375 11.8125 C 13.464844 11.992188 13.683594 12.339844 14.015625 12.855469 C 14.351562 13.320312 14.675781 13.757812 14.984375 14.171875 C 14.960938 14.226562 14.960938 14.261719 14.984375 14.289062 C 14.984375 14.367188 15.039062 14.40625 15.140625 14.40625 L 16.300781 15.375 C 16.585938 15.375 16.585938 15.515625 16.300781 15.800781 C 16.226562 15.878906 16.175781 15.914062 16.148438 15.914062 C 16.121094 15.914062 16.046875 15.878906 15.914062 15.800781 L 15.335938 15.375 C 15.566406 16.070312 15.738281 16.78125 15.839844 17.503906 C 15.914062 18.226562 16.019531 19.039062 16.148438 19.941406 C 16.535156 21.828125 17.234375 23.542969 18.238281 25.09375 C 19.246094 26.644531 20.617188 27.972656 22.34375 29.082031 C 22.605469 29.289062 22.769531 29.46875 22.847656 29.625 C 22.871094 29.804688 22.886719 29.960938 22.886719 30.089844 L 22.886719 30.320312 C 22.886719 30.527344 22.847656 30.707031 22.769531 30.863281 C 22.691406 31.042969 22.589844 31.171875 22.460938 31.25 C 22.460938 31.378906 22.421875 31.519531 22.34375 31.675781 C 22.242188 31.804688 22.019531 31.867188 21.6875 31.867188 C 21.480469 32.101562 21.09375 32.023438 20.523438 31.636719 L 20.332031 31.519531 C 18.242188 30.203125 16.578125 28.679688 15.335938 26.949219 C 14.125 25.195312 13.257812 23.273438 12.742188 21.183594 C 12.640625 20.355469 12.5625 19.621094 12.507812 18.972656 C 12.40625 18.328125 12.355469 17.722656 12.355469 17.152344 C 12.226562 16.742188 12.148438 16.324219 12.121094 15.914062 C 12.097656 15.476562 12.058594 15.167969 12.007812 14.984375 L 11.578125 14.523438 L 10.804688 13.246094 C 10.546875 12.988281 10.339844 12.742188 10.1875 12.507812 C 10.007812 12.277344 9.863281 12.082031 9.757812 11.929688 C 9.605469 11.773438 9.527344 11.671875 9.527344 11.621094 C 9.425781 11.566406 9.207031 11.480469 8.871094 11.347656 C 8.5625 11.191406 8.238281 11.050781 7.902344 10.921875 C 7.488281 10.765625 7.035156 10.601562 6.546875 10.417969 L 0.191406 5.230469 L 0 4.957031 C 0 4.855469 0.0664062 4.804688 0.191406 4.804688 L 0.191406 4.609375 C 0.191406 4.480469 0.324219 4.417969 0.578125 4.417969 L 7.355469 7.011719 C 7.460938 7.089844 7.511719 7.179688 7.511719 7.28125 C 7.539062 7.386719 7.550781 7.488281 7.550781 7.589844 C 7.550781 7.980469 7.617188 8.171875 7.746094 8.171875 C 8.003906 8.25 8.195312 8.238281 8.328125 8.136719 C 8.429688 8.082031 8.507812 8.03125 8.558594 7.980469 L 8.558594 7.785156 L 9.292969 6.816406 C 9.398438 6.636719 9.410156 6.496094 9.332031 6.390625 C 9.203125 6.339844 9.085938 6.3125 8.984375 6.3125 L 8.753906 6.390625 C 8.625 6.390625 8.496094 6.390625 8.363281 6.390625 C 8.207031 6.363281 8.132812 6.300781 8.132812 6.199219 L 3.792969 0.464844 L 3.792969 0 L 4.375 0 L 10.144531 4.027344 L 10.378906 4.027344 C 10.792969 4.59375 11.152344 5.097656 11.460938 5.539062 C 11.746094 5.925781 12.003906 6.289062 12.238281 6.621094 C 12.519531 6.933594 12.6875 7.113281 12.742188 7.164062 C 12.867188 7.214844 13.128906 7.292969 13.515625 7.398438 C 13.875 7.527344 14.261719 7.644531 14.675781 7.746094 C 15.117188 7.875 15.527344 7.980469 15.914062 8.054688 C 16.277344 8.136719 16.484375 8.171875 16.535156 8.171875 C 16.792969 8.171875 17.570312 8.105469 18.859375 7.980469 C 20.097656 7.847656 21.773438 7.789062 23.890625 7.789062 C 25.128906 7.789062 26.152344 7.824219 26.949219 7.902344 C 27.753906 8.007812 28.539062 8.210938 29.3125 8.523438 C 30.089844 8.859375 30.953125 9.324219 31.910156 9.917969 C 32.863281 10.535156 34.089844 11.371094 35.585938 12.433594 C 35.71875 12.507812 35.808594 12.601562 35.859375 12.703125 Z M 16.300781 12.976562 L 17.890625 13.59375 C 18.019531 13.59375 18.082031 13.722656 18.082031 13.980469 C 17.980469 13.980469 17.917969 14.007812 17.890625 14.058594 C 17.863281 14.109375 17.796875 14.085938 17.695312 13.980469 L 16.148438 13.59375 C 16.019531 13.59375 15.941406 13.554688 15.914062 13.476562 C 15.914062 13.375 15.914062 13.296875 15.914062 13.246094 C 15.914062 13.089844 15.964844 13.011719 16.070312 13.011719 C 16.148438 12.988281 16.226562 12.976562 16.300781 12.976562 Z M 16.535156 12.429688 C 16.535156 12.328125 16.5625 12.265625 16.613281 12.238281 C 16.636719 12.183594 16.675781 12.160156 16.726562 12.160156 L 18.316406 12.429688 C 18.417969 12.429688 18.523438 12.46875 18.625 12.546875 C 18.703125 12.625 18.742188 12.699219 18.742188 12.78125 C 18.742188 12.882812 18.703125 12.949219 18.625 12.972656 C 18.519531 12.972656 18.417969 12.972656 18.316406 12.972656 L 16.726562 12.78125 C 16.601562 12.78125 16.535156 12.664062 16.535156 12.429688 Z M 17.347656 14.988281 C 17.195312 14.988281 17.078125 15 17 15.027344 C 16.949219 15.078125 16.921875 15.0625 16.921875 14.988281 L 15.527344 14.171875 C 15.398438 14.171875 15.335938 14.046875 15.335938 13.785156 C 15.4375 13.785156 15.503906 13.761719 15.527344 13.710938 C 15.554688 13.660156 15.632812 13.683594 15.757812 13.785156 L 17.078125 14.523438 C 17.230469 14.523438 17.324219 14.574219 17.347656 14.675781 C 17.347656 14.78125 17.347656 14.882812 17.347656 14.988281 Z M 17.347656 14.988281 "/>
</g>
</svg>
