<?xml version="1.0" encoding="UTF-8"?>
<svg xmlns="http://www.w3.org/2000/svg" xmlns:xlink="http://www.w3.org/1999/xlink" width="36px" height="32px" viewBox="0 0 36 32" version="1.1">
<g id="surface1">
<path style=" stroke:none;fill-rule:nonzero;fill:rgb(100%,100%,100%);fill-opacity:1;" d="M 27.683594 16.984375 C 27.683594 16.984375 27.550781 15.257812 27.417969 14.464844 C 27.285156 13.667969 26.617188 13.148438 26.617188 13.148438 C 26.617188 13.148438 26.882812 5.585938 19.121094 5.585938 C 16.148438 5.585938 13.617188 6.746094 12.285156 8.175781 C 10.136719 10.476562 10.234375 13.476562 10.234375 13.476562 C 10.234375 13.476562 9.308594 13.59375 8.578125 13.835938 C 7.847656 14.074219 8.578125 14.539062 8.578125 14.539062 C 8.578125 14.539062 9.3125 14.75 10.375 14.75 C 11.4375 14.75 11.695312 14.796875 11.695312 14.796875 C 11.695312 14.796875 11.695312 14.796875 11.695312 15.324219 C 11.695312 15.433594 11.390625 15.371094 11.390625 15.503906 C 11.390625 15.855469 11.433594 16.660156 11.433594 17.183594 C 11.433594 17.445312 11.703125 17.28125 11.714844 17.445312 C 11.722656 17.558594 11.554688 17.589844 11.566406 17.714844 C 11.59375 17.933594 11.628906 18.171875 11.671875 18.414062 C 11.691406 18.53125 11.808594 18.605469 11.832031 18.730469 C 12.167969 20.441406 12.6875 22.433594 12.6875 22.433594 C 12.6875 22.433594 12.394531 22.464844 12.378906 22.886719 C 12.339844 23.78125 12.714844 24.671875 13.039062 25.273438 C 13.164062 25.503906 13.320312 25.542969 13.789062 25.9375 C 14.320312 26.378906 15.6875 26.585938 16.488281 26.238281 C 18.011719 25.574219 18.324219 25.085938 18.324219 25.085938 C 18.324219 25.085938 21.042969 24.820312 22.171875 24.355469 C 23.300781 23.890625 24.867188 21.757812 25.332031 21.292969 C 25.480469 21.144531 25.742188 21.363281 25.933594 21.121094 C 26.332031 20.605469 26.71875 20.152344 26.777344 19.613281 C 26.867188 18.757812 26.878906 17.988281 26.878906 17.988281 C 26.878906 17.988281 26.878906 17.988281 27.410156 17.921875 C 27.941406 17.855469 27.683594 16.984375 27.683594 16.984375 Z M 13.351562 25.160156 C 14.019531 25.171875 15.164062 25.140625 15.164062 25.140625 C 14.191406 25.671875 12.992188 25.152344 13.351562 25.160156 Z M 18.195312 22.875 C 18.171875 23.375 17.949219 23.59375 17.949219 23.59375 C 17.949219 23.59375 17.132812 23.625 16.667969 23.625 C 16.203125 23.625 15.742188 23.625 15.742188 23.625 C 15.742188 23.625 16.980469 22.355469 17.328125 22.023438 C 17.679688 21.691406 18.480469 21.804688 18.480469 21.804688 C 18.167969 22.386719 18.21875 22.34375 18.195312 22.875 Z M 18.8125 18.980469 C 18.945312 19.84375 19.035156 20.527344 19.035156 20.527344 C 19.035156 20.527344 17.199219 20.972656 16.601562 21.4375 C 16.003906 21.898438 15.808594 22.496094 15.078125 22.925781 C 14.347656 23.355469 13.816406 22.894531 13.21875 22.296875 C 12.84375 21.921875 12.941406 20.046875 13.070312 18.726562 C 13.082031 18.601562 13.191406 18.578125 13.203125 18.464844 C 13.234375 18.175781 13.277344 17.992188 13.246094 17.800781 C 13.21875 17.605469 13.117188 17.402344 13.117188 17.402344 C 13.117188 17.402344 15.078125 17.390625 16.070312 17.390625 C 17.066406 17.390625 19.917969 17.058594 19.917969 17.058594 L 19.960938 17.742188 L 18.679688 18.117188 C 18.679688 18.121094 18.679688 18.121094 18.8125 18.980469 Z M 22.371094 22.695312 C 20.742188 23.3125 20.027344 23.546875 20.027344 23.546875 C 20.027344 23.546875 19.949219 22.511719 20.582031 21.898438 C 20.667969 21.816406 20.648438 21.527344 20.761719 21.578125 C 21.078125 21.726562 21.574219 20.398438 21.382812 20.351562 C 21.199219 20.308594 21.507812 20.078125 21.507812 20.078125 C 21.507812 20.078125 22.339844 20.085938 23.066406 20.132812 C 23.929688 20.191406 25.023438 20.585938 25.023438 20.585938 C 25.019531 20.984375 23.84375 22.136719 22.371094 22.695312 Z M 22.351562 17.613281 L 22.371094 17.058594 L 24.296875 17.058594 L 24.824219 17.65625 Z M 22.351562 17.613281 "/>
</g>
</svg>
